<svg xmlns="http://www.w3.org/2000/svg" width="1284" height="621" viewBox="0 0 1284 621" font-family="JetBrains Mono, SF Mono, Menlo, Consolas, monospace" font-size="14">
<rect width="100%" height="100%" rx="8" fill="rgb(24,24,24)"/>
<rect x="24.4" y="16" width="9" height="19" fill="rgb(55,55,55)"/>
<rect x="32.8" y="16" width="9" height="19" fill="rgb(55,55,55)"/>
<rect x="41.2" y="16" width="9" height="19" fill="rgb(55,55,55)"/>
<rect x="49.6" y="16" width="9" height="19" fill="rgb(55,55,55)"/>
<rect x="58.0" y="16" width="9" height="19" fill="rgb(55,55,55)"/>
<rect x="66.4" y="16" width="9" height="19" fill="rgb(55,55,55)"/>
<rect x="74.8" y="16" width="9" height="19" fill="rgb(55,55,55)"/>
<rect x="83.2" y="16" width="9" height="19" fill="rgb(55,55,55)"/>
<rect x="91.6" y="16" width="9" height="19" fill="rgb(55,55,55)"/>
<rect x="100.0" y="16" width="9" height="19" fill="rgb(55,55,55)"/>
<rect x="108.4" y="16" width="9" height="19" fill="rgb(55,55,55)"/>
<rect x="116.8" y="16" width="9" height="19" fill="rgb(55,55,55)"/>
<rect x="125.2" y="16" width="9" height="19" fill="rgb(55,55,55)"/>
<rect x="133.6" y="16" width="9" height="19" fill="rgb(55,55,55)"/>
<rect x="142.0" y="16" width="9" height="19" fill="rgb(55,55,55)"/>
<rect x="150.4" y="16" width="9" height="19" fill="rgb(55,55,55)"/>
<rect x="158.8" y="16" width="9" height="19" fill="rgb(55,55,55)"/>
<rect x="167.2" y="16" width="9" height="19" fill="rgb(55,55,55)"/>
<rect x="175.6" y="16" width="9" height="19" fill="rgb(55,55,55)"/>
<rect x="184.0" y="16" width="9" height="19" fill="rgb(55,55,55)"/>
<rect x="192.4" y="16" width="9" height="19" fill="rgb(55,55,55)"/>
<rect x="200.8" y="16" width="9" height="19" fill="rgb(55,55,55)"/>
<rect x="209.2" y="16" width="9" height="19" fill="rgb(55,55,55)"/>
<rect x="217.6" y="16" width="9" height="19" fill="rgb(55,55,55)"/>
<rect x="226.0" y="16" width="9" height="19" fill="rgb(55,55,55)"/>
<rect x="234.4" y="16" width="9" height="19" fill="rgb(55,55,55)"/>
<rect x="242.8" y="16" width="9" height="19" fill="rgb(55,55,55)"/>
<rect x="251.2" y="16" width="9" height="19" fill="rgb(55,55,55)"/>
<rect x="259.6" y="16" width="9" height="19" fill="rgb(55,55,55)"/>
<rect x="268.0" y="16" width="9" height="19" fill="rgb(55,55,55)"/>
<rect x="276.4" y="16" width="9" height="19" fill="rgb(55,55,55)"/>
<rect x="284.8" y="16" width="9" height="19" fill="rgb(55,55,55)"/>
<rect x="293.2" y="16" width="9" height="19" fill="rgb(55,55,55)"/>
<rect x="301.6" y="16" width="9" height="19" fill="rgb(55,55,55)"/>
<rect x="310.0" y="16" width="9" height="19" fill="rgb(55,55,55)"/>
<rect x="318.4" y="16" width="9" height="19" fill="rgb(55,55,55)"/>
<rect x="326.8" y="16" width="9" height="19" fill="rgb(55,55,55)"/>
<rect x="335.2" y="16" width="9" height="19" fill="rgb(55,55,55)"/>
<rect x="343.6" y="16" width="9" height="19" fill="rgb(55,55,55)"/>
<rect x="352.0" y="16" width="9" height="19" fill="rgb(55,55,55)"/>
<rect x="360.4" y="16" width="9" height="19" fill="rgb(55,55,55)"/>
<rect x="368.8" y="16" width="9" height="19" fill="rgb(55,55,55)"/>
<rect x="377.2" y="16" width="9" height="19" fill="rgb(55,55,55)"/>
<rect x="385.6" y="16" width="9" height="19" fill="rgb(55,55,55)"/>
<rect x="394.0" y="16" width="9" height="19" fill="rgb(55,55,55)"/>
<rect x="402.4" y="16" width="9" height="19" fill="rgb(55,55,55)"/>
<rect x="410.8" y="16" width="9" height="19" fill="rgb(55,55,55)"/>
<rect x="419.2" y="16" width="9" height="19" fill="rgb(55,55,55)"/>
<rect x="427.6" y="16" width="9" height="19" fill="rgb(55,55,55)"/>
<rect x="436.0" y="16" width="9" height="19" fill="rgb(55,55,55)"/>
<rect x="444.4" y="16" width="9" height="19" fill="rgb(55,55,55)"/>
<rect x="452.8" y="16" width="9" height="19" fill="rgb(55,55,55)"/>
<rect x="461.2" y="16" width="9" height="19" fill="rgb(55,55,55)"/>
<rect x="469.6" y="16" width="9" height="19" fill="rgb(55,55,55)"/>
<rect x="478.0" y="16" width="9" height="19" fill="rgb(55,55,55)"/>
<rect x="486.4" y="16" width="9" height="19" fill="rgb(55,55,55)"/>
<rect x="494.8" y="16" width="9" height="19" fill="rgb(55,55,55)"/>
<rect x="503.2" y="16" width="9" height="19" fill="rgb(55,55,55)"/>
<rect x="511.6" y="16" width="9" height="19" fill="rgb(55,55,55)"/>
<rect x="520.0" y="16" width="9" height="19" fill="rgb(55,55,55)"/>
<rect x="528.4" y="16" width="9" height="19" fill="rgb(55,55,55)"/>
<rect x="536.8" y="16" width="9" height="19" fill="rgb(55,55,55)"/>
<rect x="545.2" y="16" width="9" height="19" fill="rgb(55,55,55)"/>
<rect x="553.6" y="16" width="9" height="19" fill="rgb(55,55,55)"/>
<rect x="562.0" y="16" width="9" height="19" fill="rgb(55,55,55)"/>
<rect x="570.4" y="16" width="9" height="19" fill="rgb(55,55,55)"/>
<rect x="578.8" y="16" width="9" height="19" fill="rgb(55,55,55)"/>
<rect x="587.2" y="16" width="9" height="19" fill="rgb(55,55,55)"/>
<rect x="595.6" y="16" width="9" height="19" fill="rgb(55,55,55)"/>
<rect x="604.0" y="16" width="9" height="19" fill="rgb(55,55,55)"/>
<rect x="612.4" y="16" width="9" height="19" fill="rgb(55,55,55)"/>
<rect x="620.8" y="16" width="9" height="19" fill="rgb(55,55,55)"/>
<rect x="629.2" y="16" width="9" height="19" fill="rgb(55,55,55)"/>
<rect x="637.6" y="16" width="9" height="19" fill="rgb(55,55,55)"/>
<rect x="646.0" y="16" width="9" height="19" fill="rgb(55,55,55)"/>
<rect x="654.4" y="16" width="9" height="19" fill="rgb(55,55,55)"/>
<rect x="662.8" y="16" width="9" height="19" fill="rgb(55,55,55)"/>
<rect x="671.2" y="16" width="9" height="19" fill="rgb(55,55,55)"/>
<rect x="679.6" y="16" width="9" height="19" fill="rgb(55,55,55)"/>
<rect x="688.0" y="16" width="9" height="19" fill="rgb(55,55,55)"/>
<rect x="696.4" y="16" width="9" height="19" fill="rgb(55,55,55)"/>
<rect x="704.8" y="16" width="9" height="19" fill="rgb(55,55,55)"/>
<text x="24.4" y="30.25" fill="rgb(80,80,80)" textLength="16.8" xml:space="preserve">&gt; </text>
<text x="41.2" y="30.25" fill="rgb(255,255,255)" textLength="226.8" xml:space="preserve">what’s left in this sprint?</text>
<text x="721.6" y="30.25" fill="rgb(80,80,80)" textLength="8.4" xml:space="preserve">│</text>
<text x="730.0" y="30.25" fill="rgb(255,255,255)" font-weight="bold" textLength="67.2" xml:space="preserve"> Sprint </text>
<text x="721.6" y="49.25" fill="rgb(80,80,80)" textLength="8.4" xml:space="preserve">│</text>
<text x="738.4" y="49.25" fill="rgb(215,119,87)" textLength="16.8" xml:space="preserve">⚡ </text>
<text x="755.2" y="49.25" fill="rgb(255,255,255)" font-weight="bold" textLength="168.0" xml:space="preserve">Currently working on</text>
<text x="923.2" y="49.25" fill="rgb(80,80,80)" textLength="16.8" xml:space="preserve"> 1</text>
<text x="24.4" y="68.25" fill="rgb(78,186,101)" textLength="16.8" xml:space="preserve">⏺ </text>
<text x="41.2" y="68.25" fill="rgb(255,255,255)" font-weight="bold" textLength="252.0" xml:space="preserve">better-tasks - task_list (MCP)</text>
<text x="293.2" y="68.25" fill="rgb(255,255,255)" textLength="159.6" xml:space="preserve">(sprint: "current")</text>
<text x="721.6" y="68.25" fill="rgb(80,80,80)" textLength="8.4" xml:space="preserve">│</text>
<text x="755.2" y="68.25" fill="rgb(215,119,87)" textLength="8.4" xml:space="preserve">✻</text>
<text x="772.0" y="68.25" fill="rgb(255,255,255)" opacity="0.55" textLength="327.6" xml:space="preserve">T-007  Login loops after password reset</text>
<text x="1150.0" y="68.25" fill="rgb(80,80,80)" textLength="33.6" xml:space="preserve">auth</text>
<text x="1192.0" y="68.25" fill="rgb(255,193,7)" textLength="25.2" xml:space="preserve">63%</text>
<text x="1225.6" y="68.25" fill="rgb(255,193,7)" textLength="33.6" xml:space="preserve">cold</text>
<text x="24.4" y="87.25" fill="rgb(80,80,80)" textLength="42.0" xml:space="preserve">  ⎿  </text>
<text x="66.4" y="87.25" fill="rgb(153,153,153)" textLength="411.6" xml:space="preserve">T-007 [doing] … · T-001 [todo] … · T-004 [todo] …</text>
<text x="721.6" y="87.25" fill="rgb(80,80,80)" textLength="8.4" xml:space="preserve">│</text>
<text x="721.6" y="106.25" fill="rgb(80,80,80)" textLength="8.4" xml:space="preserve">│</text>
<text x="738.4" y="106.25" fill="rgb(80,80,80)" textLength="16.8" xml:space="preserve">◆ </text>
<text x="755.2" y="106.25" fill="rgb(255,255,255)" font-weight="bold" textLength="92.4" xml:space="preserve">This sprint</text>
<text x="847.6" y="106.25" fill="rgb(80,80,80)" textLength="310.8" xml:space="preserve"> 2 · Week 41 · Oct 5–11 · 5 days left</text>
<text x="1183.6" y="106.25" fill="rgb(78,186,101)" textLength="8.4" xml:space="preserve">▰</text>
<text x="1192.0" y="106.25" fill="rgb(80,80,80)" textLength="33.6" xml:space="preserve">▱▱▱▱</text>
<text x="1234.0" y="106.25" fill="rgb(80,80,80)" textLength="25.2" xml:space="preserve">1/4</text>
<text x="24.4" y="125.25" fill="rgb(255,255,255)" textLength="579.6" xml:space="preserve">⏺ Three open: T-007 is with auth, T-001 and T-004 wait. Rate limiting</text>
<text x="721.6" y="125.25" fill="rgb(80,80,80)" textLength="8.4" xml:space="preserve">│</text>
<text x="738.4" y="125.25" fill="rgb(80,80,80)" textLength="226.8" xml:space="preserve">  ◎ Ship the new login flow</text>
<rect x="738.4" y="130" width="9" height="19" fill="rgb(55,55,55)"/>
<rect x="746.8" y="130" width="9" height="19" fill="rgb(55,55,55)"/>
<rect x="755.2" y="130" width="9" height="19" fill="rgb(55,55,55)"/>
<rect x="763.6" y="130" width="9" height="19" fill="rgb(55,55,55)"/>
<rect x="772.0" y="130" width="9" height="19" fill="rgb(255,255,255)"/>
<rect x="780.4" y="130" width="9" height="19" fill="rgb(255,255,255)"/>
<rect x="788.8" y="130" width="9" height="19" fill="rgb(255,255,255)"/>
<rect x="797.2" y="130" width="9" height="19" fill="rgb(255,255,255)"/>
<rect x="805.6" y="130" width="9" height="19" fill="rgb(255,255,255)"/>
<rect x="814.0" y="130" width="9" height="19" fill="rgb(255,255,255)"/>
<rect x="822.4" y="130" width="9" height="19" fill="rgb(255,255,255)"/>
<rect x="830.8" y="130" width="9" height="19" fill="rgb(255,255,255)"/>
<rect x="839.2" y="130" width="9" height="19" fill="rgb(255,255,255)"/>
<rect x="847.6" y="130" width="9" height="19" fill="rgb(255,255,255)"/>
<rect x="856.0" y="130" width="9" height="19" fill="rgb(255,255,255)"/>
<rect x="864.4" y="130" width="9" height="19" fill="rgb(255,255,255)"/>
<rect x="872.8" y="130" width="9" height="19" fill="rgb(255,255,255)"/>
<rect x="881.2" y="130" width="9" height="19" fill="rgb(255,255,255)"/>
<rect x="889.6" y="130" width="9" height="19" fill="rgb(255,255,255)"/>
<rect x="898.0" y="130" width="9" height="19" fill="rgb(255,255,255)"/>
<rect x="906.4" y="130" width="9" height="19" fill="rgb(255,255,255)"/>
<rect x="914.8" y="130" width="9" height="19" fill="rgb(255,255,255)"/>
<rect x="923.2" y="130" width="9" height="19" fill="rgb(255,255,255)"/>
<rect x="931.6" y="130" width="9" height="19" fill="rgb(255,255,255)"/>
<rect x="940.0" y="130" width="9" height="19" fill="rgb(255,255,255)"/>
<rect x="948.4" y="130" width="9" height="19" fill="rgb(255,255,255)"/>
<rect x="956.8" y="130" width="9" height="19" fill="rgb(255,255,255)"/>
<rect x="965.2" y="130" width="9" height="19" fill="rgb(255,255,255)"/>
<rect x="973.6" y="130" width="9" height="19" fill="rgb(255,255,255)"/>
<rect x="982.0" y="130" width="9" height="19" fill="rgb(255,255,255)"/>
<rect x="990.4" y="130" width="9" height="19" fill="rgb(255,255,255)"/>
<rect x="998.8" y="130" width="9" height="19" fill="rgb(255,255,255)"/>
<rect x="1007.2" y="130" width="9" height="19" fill="rgb(255,255,255)"/>
<rect x="1015.6" y="130" width="9" height="19" fill="rgb(255,255,255)"/>
<rect x="1024.0" y="130" width="9" height="19" fill="rgb(255,255,255)"/>
<rect x="1032.4" y="130" width="9" height="19" fill="rgb(255,255,255)"/>
<rect x="1040.8" y="130" width="9" height="19" fill="rgb(55,55,55)"/>
<rect x="1049.2" y="130" width="9" height="19" fill="rgb(55,55,55)"/>
<rect x="1057.6" y="130" width="9" height="19" fill="rgb(55,55,55)"/>
<rect x="1066.0" y="130" width="9" height="19" fill="rgb(55,55,55)"/>
<rect x="1074.4" y="130" width="9" height="19" fill="rgb(55,55,55)"/>
<rect x="1082.8" y="130" width="9" height="19" fill="rgb(55,55,55)"/>
<rect x="1091.2" y="130" width="9" height="19" fill="rgb(55,55,55)"/>
<rect x="1099.6" y="130" width="9" height="19" fill="rgb(55,55,55)"/>
<rect x="1108.0" y="130" width="9" height="19" fill="rgb(55,55,55)"/>
<rect x="1116.4" y="130" width="9" height="19" fill="rgb(55,55,55)"/>
<rect x="1124.8" y="130" width="9" height="19" fill="rgb(55,55,55)"/>
<rect x="1133.2" y="130" width="9" height="19" fill="rgb(55,55,55)"/>
<rect x="1141.6" y="130" width="9" height="19" fill="rgb(55,55,55)"/>
<rect x="1150.0" y="130" width="9" height="19" fill="rgb(55,55,55)"/>
<rect x="1158.4" y="130" width="9" height="19" fill="rgb(55,55,55)"/>
<rect x="1166.8" y="130" width="9" height="19" fill="rgb(55,55,55)"/>
<rect x="1175.2" y="130" width="9" height="19" fill="rgb(55,55,55)"/>
<rect x="1183.6" y="130" width="9" height="19" fill="rgb(55,55,55)"/>
<rect x="1192.0" y="130" width="9" height="19" fill="rgb(55,55,55)"/>
<rect x="1200.4" y="130" width="9" height="19" fill="rgb(55,55,55)"/>
<rect x="1208.8" y="130" width="9" height="19" fill="rgb(55,55,55)"/>
<rect x="1217.2" y="130" width="9" height="19" fill="rgb(55,55,55)"/>
<rect x="1225.6" y="130" width="9" height="19" fill="rgb(55,55,55)"/>
<rect x="1234.0" y="130" width="9" height="19" fill="rgb(55,55,55)"/>
<rect x="1242.4" y="130" width="9" height="19" fill="rgb(55,55,55)"/>
<rect x="1250.8" y="130" width="9" height="19" fill="rgb(55,55,55)"/>
<text x="24.4" y="144.25" fill="rgb(255,255,255)" textLength="504.0" xml:space="preserve">⏺ matters more for the launch, so I moved T-004 above T-001.</text>
<text x="721.6" y="144.25" fill="rgb(80,80,80)" textLength="8.4" xml:space="preserve">│</text>
<text x="738.4" y="144.25" fill="rgb(215,119,87)" textLength="8.4" xml:space="preserve">↕</text>
<text x="755.2" y="144.25" fill="rgb(80,80,80)" textLength="8.4" xml:space="preserve">·</text>
<text x="772.0" y="144.25" fill="rgb(55,55,55)" textLength="268.8" xml:space="preserve">T-004  Rate-limit the public API</text>
<text x="1208.8" y="144.25" fill="rgb(215,119,87)" textLength="50.4" xml:space="preserve">moving</text>
<text x="721.6" y="163.25" fill="rgb(80,80,80)" textLength="8.4" xml:space="preserve">│</text>
<text x="755.2" y="163.25" fill="rgb(80,80,80)" textLength="8.4" xml:space="preserve">·</text>
<text x="772.0" y="163.25" fill="rgb(255,255,255)" opacity="0.55" textLength="243.6" xml:space="preserve">T-001  Fix the login redirect</text>
<text x="1242.4" y="163.25" fill="rgb(80,80,80)" textLength="16.8" xml:space="preserve">↻1</text>
<text x="721.6" y="182.25" fill="rgb(80,80,80)" textLength="8.4" xml:space="preserve">│</text>
<text x="721.6" y="201.25" fill="rgb(80,80,80)" textLength="8.4" xml:space="preserve">│</text>
<text x="738.4" y="201.25" fill="rgb(80,80,80)" textLength="16.8" xml:space="preserve">◇ </text>
<text x="755.2" y="201.25" fill="rgb(255,255,255)" font-weight="bold" textLength="92.4" xml:space="preserve">Next sprint</text>
<text x="847.6" y="201.25" fill="rgb(80,80,80)" textLength="201.6" xml:space="preserve"> 1 · Week 42 · Oct 12–18</text>
<text x="721.6" y="220.25" fill="rgb(80,80,80)" textLength="8.4" xml:space="preserve">│</text>
<text x="755.2" y="220.25" fill="rgb(80,80,80)" textLength="8.4" xml:space="preserve">·</text>
<text x="772.0" y="220.25" fill="rgb(80,80,80)" textLength="243.6" xml:space="preserve">T-009  Dark mode for settings</text>
<text x="721.6" y="239.25" fill="rgb(80,80,80)" textLength="8.4" xml:space="preserve">│</text>
<text x="721.6" y="258.25" fill="rgb(80,80,80)" textLength="8.4" xml:space="preserve">│</text>
<text x="738.4" y="258.25" fill="rgb(80,80,80)" textLength="16.8" xml:space="preserve">○ </text>
<text x="755.2" y="258.25" fill="rgb(255,255,255)" font-weight="bold" textLength="58.8" xml:space="preserve">Backlog</text>
<text x="814.0" y="258.25" fill="rgb(80,80,80)" textLength="16.8" xml:space="preserve"> 2</text>
<text x="721.6" y="277.25" fill="rgb(80,80,80)" textLength="8.4" xml:space="preserve">│</text>
<text x="755.2" y="277.25" fill="rgb(80,80,80)" textLength="8.4" xml:space="preserve">·</text>
<text x="772.0" y="277.25" fill="rgb(80,80,80)" textLength="235.2" xml:space="preserve">T-002  Billing export as CSV</text>
<text x="721.6" y="296.25" fill="rgb(80,80,80)" textLength="8.4" xml:space="preserve">│</text>
<text x="755.2" y="296.25" fill="rgb(80,80,80)" textLength="8.4" xml:space="preserve">·</text>
<text x="772.0" y="296.25" fill="rgb(80,80,80)" textLength="201.6" xml:space="preserve">T-005  Onboarding emails</text>
<text x="721.6" y="315.25" fill="rgb(80,80,80)" textLength="8.4" xml:space="preserve">│</text>
<text x="721.6" y="334.25" fill="rgb(80,80,80)" textLength="8.4" xml:space="preserve">│</text>
<text x="738.4" y="334.25" fill="rgb(78,186,101)" textLength="8.4" xml:space="preserve">✓</text>
<text x="755.2" y="334.25" fill="rgb(80,80,80)" textLength="100.8" xml:space="preserve">Closed · 1 ▸</text>
<text x="721.6" y="353.25" fill="rgb(80,80,80)" textLength="8.4" xml:space="preserve">│</text>
<text x="721.6" y="372.25" fill="rgb(80,80,80)" textLength="8.4" xml:space="preserve">│</text>
<text x="721.6" y="391.25" fill="rgb(80,80,80)" textLength="8.4" xml:space="preserve">│</text>
<text x="721.6" y="410.25" fill="rgb(80,80,80)" textLength="8.4" xml:space="preserve">│</text>
<text x="721.6" y="429.25" fill="rgb(80,80,80)" textLength="8.4" xml:space="preserve">│</text>
<text x="721.6" y="448.25" fill="rgb(80,80,80)" textLength="8.4" xml:space="preserve">│</text>
<text x="721.6" y="467.25" fill="rgb(80,80,80)" textLength="8.4" xml:space="preserve">│</text>
<text x="721.6" y="486.25" fill="rgb(80,80,80)" textLength="8.4" xml:space="preserve">│</text>
<text x="738.4" y="486.25" fill="rgb(80,80,80)" textLength="520.8" xml:space="preserve">╭────────────────────────────────────────────────────────────╮</text>
<text x="721.6" y="505.25" fill="rgb(80,80,80)" textLength="8.4" xml:space="preserve">│</text>
<text x="738.4" y="505.25" fill="rgb(80,80,80)" textLength="8.4" xml:space="preserve">│</text>
<text x="755.2" y="505.25" fill="rgb(255,255,255)" font-weight="bold" textLength="268.8" xml:space="preserve">T-004  Rate-limit the public API</text>
<text x="1040.8" y="505.25" fill="rgb(80,80,80)" textLength="109.2" xml:space="preserve">◆ This sprint</text>
<text x="1250.8" y="505.25" fill="rgb(80,80,80)" textLength="8.4" xml:space="preserve">│</text>
<text x="721.6" y="524.25" fill="rgb(80,80,80)" textLength="8.4" xml:space="preserve">│</text>
<text x="738.4" y="524.25" fill="rgb(80,80,80)" textLength="8.4" xml:space="preserve">│</text>
<text x="755.2" y="524.25" fill="rgb(80,80,80)" textLength="8.4" xml:space="preserve">⎿</text>
<text x="780.4" y="524.25" fill="rgb(80,80,80)" textLength="92.4" xml:space="preserve">not started</text>
<text x="1250.8" y="524.25" fill="rgb(80,80,80)" textLength="8.4" xml:space="preserve">│</text>
<text x="24.4" y="543.25" fill="rgb(136,136,136)" textLength="688.8" xml:space="preserve">╭────────────────────────────────────────────────────────────────────────────────╮</text>
<text x="721.6" y="543.25" fill="rgb(80,80,80)" textLength="8.4" xml:space="preserve">│</text>
<text x="738.4" y="543.25" fill="rgb(80,80,80)" textLength="8.4" xml:space="preserve">│</text>
<text x="755.2" y="543.25" fill="rgb(215,119,87)" textLength="176.4" xml:space="preserve">↕ ↑↓ move it · ⏎ stop</text>
<text x="1250.8" y="543.25" fill="rgb(80,80,80)" textLength="8.4" xml:space="preserve">│</text>
<rect x="58.0" y="548" width="9" height="19" fill="rgb(255,255,255)"/>
<text x="24.4" y="562.25" fill="rgb(136,136,136)" textLength="8.4" xml:space="preserve">│</text>
<text x="41.2" y="562.25" fill="rgb(255,255,255)" textLength="8.4" xml:space="preserve">&gt;</text>
<text x="704.8" y="562.25" fill="rgb(136,136,136)" textLength="8.4" xml:space="preserve">│</text>
<text x="721.6" y="562.25" fill="rgb(80,80,80)" textLength="8.4" xml:space="preserve">│</text>
<text x="738.4" y="562.25" fill="rgb(80,80,80)" textLength="8.4" xml:space="preserve">│</text>
<text x="755.2" y="562.25" fill="rgb(80,80,80)" textLength="487.2" xml:space="preserve">Within its section, and on into the next at an edge; every</text>
<text x="1250.8" y="562.25" fill="rgb(80,80,80)" textLength="8.4" xml:space="preserve">│</text>
<text x="24.4" y="581.25" fill="rgb(136,136,136)" textLength="688.8" xml:space="preserve">╰────────────────────────────────────────────────────────────────────────────────╯</text>
<text x="721.6" y="581.25" fill="rgb(80,80,80)" textLength="8.4" xml:space="preserve">│</text>
<text x="738.4" y="581.25" fill="rgb(80,80,80)" textLength="520.8" xml:space="preserve">╰────────────────────────────────────────────────────────────╯</text>
<text x="24.4" y="600.25" fill="rgb(177,185,249)" textLength="344.4" xml:space="preserve">  ⏵⏵ accept edits on (shift+tab to cycle)</text>
<text x="545.2" y="600.25" fill="rgb(153,153,153)" textLength="168.0" xml:space="preserve">Sprint 41 · 1/4 done</text>
<text x="721.6" y="600.25" fill="rgb(80,80,80)" textLength="8.4" xml:space="preserve">│</text>
<text x="738.4" y="600.25" fill="rgb(215,119,87)" textLength="134.4" xml:space="preserve">↑↓ move · ⏎ stop</text>
</svg>
