<svg xmlns="http://www.w3.org/2000/svg" width="1284" height="526" viewBox="0 0 1284 526" font-family="JetBrains Mono, SF Mono, Menlo, Consolas, monospace" font-size="14">
<rect width="100%" height="100%" rx="8" fill="rgb(24,24,24)"/>
<rect x="24.4" y="16" width="9" height="19" fill="rgb(55,55,55)"/>
<rect x="32.8" y="16" width="9" height="19" fill="rgb(55,55,55)"/>
<rect x="41.2" y="16" width="9" height="19" fill="rgb(55,55,55)"/>
<rect x="49.6" y="16" width="9" height="19" fill="rgb(55,55,55)"/>
<rect x="58.0" y="16" width="9" height="19" fill="rgb(55,55,55)"/>
<rect x="66.4" y="16" width="9" height="19" fill="rgb(55,55,55)"/>
<rect x="74.8" y="16" width="9" height="19" fill="rgb(55,55,55)"/>
<rect x="83.2" y="16" width="9" height="19" fill="rgb(55,55,55)"/>
<rect x="91.6" y="16" width="9" height="19" fill="rgb(55,55,55)"/>
<rect x="100.0" y="16" width="9" height="19" fill="rgb(55,55,55)"/>
<rect x="108.4" y="16" width="9" height="19" fill="rgb(55,55,55)"/>
<rect x="116.8" y="16" width="9" height="19" fill="rgb(55,55,55)"/>
<rect x="125.2" y="16" width="9" height="19" fill="rgb(55,55,55)"/>
<rect x="133.6" y="16" width="9" height="19" fill="rgb(55,55,55)"/>
<rect x="142.0" y="16" width="9" height="19" fill="rgb(55,55,55)"/>
<rect x="150.4" y="16" width="9" height="19" fill="rgb(55,55,55)"/>
<rect x="158.8" y="16" width="9" height="19" fill="rgb(55,55,55)"/>
<rect x="167.2" y="16" width="9" height="19" fill="rgb(55,55,55)"/>
<rect x="175.6" y="16" width="9" height="19" fill="rgb(55,55,55)"/>
<rect x="184.0" y="16" width="9" height="19" fill="rgb(55,55,55)"/>
<rect x="192.4" y="16" width="9" height="19" fill="rgb(55,55,55)"/>
<rect x="200.8" y="16" width="9" height="19" fill="rgb(55,55,55)"/>
<rect x="209.2" y="16" width="9" height="19" fill="rgb(55,55,55)"/>
<rect x="217.6" y="16" width="9" height="19" fill="rgb(55,55,55)"/>
<rect x="226.0" y="16" width="9" height="19" fill="rgb(55,55,55)"/>
<rect x="234.4" y="16" width="9" height="19" fill="rgb(55,55,55)"/>
<rect x="242.8" y="16" width="9" height="19" fill="rgb(55,55,55)"/>
<rect x="251.2" y="16" width="9" height="19" fill="rgb(55,55,55)"/>
<rect x="259.6" y="16" width="9" height="19" fill="rgb(55,55,55)"/>
<rect x="268.0" y="16" width="9" height="19" fill="rgb(55,55,55)"/>
<rect x="276.4" y="16" width="9" height="19" fill="rgb(55,55,55)"/>
<rect x="284.8" y="16" width="9" height="19" fill="rgb(55,55,55)"/>
<rect x="293.2" y="16" width="9" height="19" fill="rgb(55,55,55)"/>
<rect x="301.6" y="16" width="9" height="19" fill="rgb(55,55,55)"/>
<rect x="310.0" y="16" width="9" height="19" fill="rgb(55,55,55)"/>
<rect x="318.4" y="16" width="9" height="19" fill="rgb(55,55,55)"/>
<rect x="326.8" y="16" width="9" height="19" fill="rgb(55,55,55)"/>
<rect x="335.2" y="16" width="9" height="19" fill="rgb(55,55,55)"/>
<rect x="343.6" y="16" width="9" height="19" fill="rgb(55,55,55)"/>
<rect x="352.0" y="16" width="9" height="19" fill="rgb(55,55,55)"/>
<rect x="360.4" y="16" width="9" height="19" fill="rgb(55,55,55)"/>
<rect x="368.8" y="16" width="9" height="19" fill="rgb(55,55,55)"/>
<rect x="377.2" y="16" width="9" height="19" fill="rgb(55,55,55)"/>
<rect x="385.6" y="16" width="9" height="19" fill="rgb(55,55,55)"/>
<rect x="394.0" y="16" width="9" height="19" fill="rgb(55,55,55)"/>
<rect x="402.4" y="16" width="9" height="19" fill="rgb(55,55,55)"/>
<rect x="410.8" y="16" width="9" height="19" fill="rgb(55,55,55)"/>
<rect x="419.2" y="16" width="9" height="19" fill="rgb(55,55,55)"/>
<rect x="427.6" y="16" width="9" height="19" fill="rgb(55,55,55)"/>
<rect x="436.0" y="16" width="9" height="19" fill="rgb(55,55,55)"/>
<rect x="444.4" y="16" width="9" height="19" fill="rgb(55,55,55)"/>
<rect x="452.8" y="16" width="9" height="19" fill="rgb(55,55,55)"/>
<rect x="461.2" y="16" width="9" height="19" fill="rgb(55,55,55)"/>
<rect x="469.6" y="16" width="9" height="19" fill="rgb(55,55,55)"/>
<rect x="478.0" y="16" width="9" height="19" fill="rgb(55,55,55)"/>
<rect x="486.4" y="16" width="9" height="19" fill="rgb(55,55,55)"/>
<rect x="494.8" y="16" width="9" height="19" fill="rgb(55,55,55)"/>
<rect x="503.2" y="16" width="9" height="19" fill="rgb(55,55,55)"/>
<rect x="511.6" y="16" width="9" height="19" fill="rgb(55,55,55)"/>
<rect x="520.0" y="16" width="9" height="19" fill="rgb(55,55,55)"/>
<rect x="528.4" y="16" width="9" height="19" fill="rgb(55,55,55)"/>
<rect x="536.8" y="16" width="9" height="19" fill="rgb(55,55,55)"/>
<rect x="545.2" y="16" width="9" height="19" fill="rgb(55,55,55)"/>
<rect x="553.6" y="16" width="9" height="19" fill="rgb(55,55,55)"/>
<rect x="562.0" y="16" width="9" height="19" fill="rgb(55,55,55)"/>
<rect x="570.4" y="16" width="9" height="19" fill="rgb(55,55,55)"/>
<rect x="578.8" y="16" width="9" height="19" fill="rgb(55,55,55)"/>
<rect x="587.2" y="16" width="9" height="19" fill="rgb(55,55,55)"/>
<rect x="595.6" y="16" width="9" height="19" fill="rgb(55,55,55)"/>
<rect x="604.0" y="16" width="9" height="19" fill="rgb(55,55,55)"/>
<rect x="612.4" y="16" width="9" height="19" fill="rgb(55,55,55)"/>
<rect x="620.8" y="16" width="9" height="19" fill="rgb(55,55,55)"/>
<rect x="629.2" y="16" width="9" height="19" fill="rgb(55,55,55)"/>
<rect x="637.6" y="16" width="9" height="19" fill="rgb(55,55,55)"/>
<rect x="646.0" y="16" width="9" height="19" fill="rgb(55,55,55)"/>
<rect x="654.4" y="16" width="9" height="19" fill="rgb(55,55,55)"/>
<rect x="662.8" y="16" width="9" height="19" fill="rgb(55,55,55)"/>
<rect x="671.2" y="16" width="9" height="19" fill="rgb(55,55,55)"/>
<rect x="679.6" y="16" width="9" height="19" fill="rgb(55,55,55)"/>
<rect x="688.0" y="16" width="9" height="19" fill="rgb(55,55,55)"/>
<rect x="696.4" y="16" width="9" height="19" fill="rgb(55,55,55)"/>
<rect x="704.8" y="16" width="9" height="19" fill="rgb(55,55,55)"/>
<text x="24.4" y="30.25" fill="rgb(80,80,80)" textLength="16.8" xml:space="preserve">&gt; </text>
<text x="41.2" y="30.25" fill="rgb(255,255,255)" textLength="386.4" xml:space="preserve">the login loops after a password reset, fix it</text>
<text x="721.6" y="30.25" fill="rgb(80,80,80)" textLength="8.4" xml:space="preserve">│</text>
<text x="730.0" y="30.25" fill="rgb(255,255,255)" font-weight="bold" textLength="67.2" xml:space="preserve"> Sprint </text>
<text x="721.6" y="49.25" fill="rgb(80,80,80)" textLength="8.4" xml:space="preserve">│</text>
<text x="24.4" y="68.25" fill="rgb(78,186,101)" textLength="16.8" xml:space="preserve">⏺ </text>
<text x="41.2" y="68.25" fill="rgb(255,255,255)" font-weight="bold" textLength="268.8" xml:space="preserve">better-tasks - task_create (MCP)</text>
<text x="310.0" y="68.25" fill="rgb(255,255,255)" textLength="386.4" xml:space="preserve">(title: "Login loops after password reset", …)</text>
<text x="721.6" y="68.25" fill="rgb(80,80,80)" textLength="8.4" xml:space="preserve">│</text>
<text x="738.4" y="68.25" fill="rgb(80,80,80)" font-weight="bold" textLength="33.6" xml:space="preserve">Team</text>
<text x="24.4" y="87.25" fill="rgb(80,80,80)" textLength="42.0" xml:space="preserve">  ⎿  </text>
<text x="66.4" y="87.25" fill="rgb(153,153,153)" textLength="630.0" xml:space="preserve">Created T-007 (currently working on): .claude/tasks/T-007.md. Route it now.</text>
<text x="721.6" y="87.25" fill="rgb(80,80,80)" textLength="8.4" xml:space="preserve">│</text>
<text x="746.8" y="87.25" fill="rgb(255,255,255)" textLength="243.6" xml:space="preserve"> Editor                      </text>
<text x="990.4" y="87.25" fill="rgb(80,80,80)" textLength="33.6" xml:space="preserve">auto</text>
<text x="721.6" y="106.25" fill="rgb(80,80,80)" textLength="8.4" xml:space="preserve">│</text>
<text x="746.8" y="106.25" fill="rgb(255,255,255)" textLength="243.6" xml:space="preserve"> Worktree per teammate       </text>
<text x="990.4" y="106.25" fill="rgb(80,80,80)" textLength="25.2" xml:space="preserve">off</text>
<rect x="755.2" y="111" width="9" height="19" fill="rgb(255,255,255)"/>
<rect x="763.6" y="111" width="9" height="19" fill="rgb(255,255,255)"/>
<rect x="772.0" y="111" width="9" height="19" fill="rgb(255,255,255)"/>
<rect x="780.4" y="111" width="9" height="19" fill="rgb(255,255,255)"/>
<rect x="788.8" y="111" width="9" height="19" fill="rgb(255,255,255)"/>
<rect x="797.2" y="111" width="9" height="19" fill="rgb(255,255,255)"/>
<rect x="805.6" y="111" width="9" height="19" fill="rgb(255,255,255)"/>
<rect x="814.0" y="111" width="9" height="19" fill="rgb(255,255,255)"/>
<rect x="822.4" y="111" width="9" height="19" fill="rgb(255,255,255)"/>
<rect x="830.8" y="111" width="9" height="19" fill="rgb(255,255,255)"/>
<rect x="839.2" y="111" width="9" height="19" fill="rgb(255,255,255)"/>
<rect x="847.6" y="111" width="9" height="19" fill="rgb(255,255,255)"/>
<rect x="856.0" y="111" width="9" height="19" fill="rgb(255,255,255)"/>
<rect x="864.4" y="111" width="9" height="19" fill="rgb(255,255,255)"/>
<rect x="872.8" y="111" width="9" height="19" fill="rgb(255,255,255)"/>
<rect x="881.2" y="111" width="9" height="19" fill="rgb(255,255,255)"/>
<rect x="889.6" y="111" width="9" height="19" fill="rgb(255,255,255)"/>
<rect x="898.0" y="111" width="9" height="19" fill="rgb(255,255,255)"/>
<rect x="906.4" y="111" width="9" height="19" fill="rgb(255,255,255)"/>
<text x="24.4" y="125.25" fill="rgb(78,186,101)" textLength="16.8" xml:space="preserve">⏺ </text>
<text x="41.2" y="125.25" fill="rgb(255,255,255)" font-weight="bold" textLength="268.8" xml:space="preserve">better-tasks - team_status (MCP)</text>
<text x="721.6" y="125.25" fill="rgb(80,80,80)" textLength="8.4" xml:space="preserve">│</text>
<text x="755.2" y="125.25" fill="rgb(24,24,24)" textLength="159.6" xml:space="preserve">1-hour prompt cache</text>
<text x="990.4" y="125.25" fill="rgb(80,80,80)" textLength="16.8" xml:space="preserve">on</text>
<text x="24.4" y="144.25" fill="rgb(80,80,80)" textLength="42.0" xml:space="preserve">  ⎿  </text>
<text x="66.4" y="144.25" fill="rgb(153,153,153)" textLength="361.2" xml:space="preserve">auth · idle · context 41 % · cache warm 52m</text>
<text x="721.6" y="144.25" fill="rgb(80,80,80)" textLength="8.4" xml:space="preserve">│</text>
<text x="746.8" y="144.25" fill="rgb(255,255,255)" textLength="243.6" xml:space="preserve"> Status check                </text>
<text x="990.4" y="144.25" fill="rgb(80,80,80)" textLength="100.8" xml:space="preserve">every 10 min</text>
<text x="721.6" y="163.25" fill="rgb(80,80,80)" textLength="8.4" xml:space="preserve">│</text>
<text x="746.8" y="163.25" fill="rgb(255,255,255)" textLength="243.6" xml:space="preserve"> Keep the Mac awake          </text>
<text x="990.4" y="163.25" fill="rgb(80,80,80)" textLength="16.8" xml:space="preserve">on</text>
<text x="24.4" y="182.25" fill="rgb(78,186,101)" textLength="16.8" xml:space="preserve">⏺ </text>
<text x="41.2" y="182.25" fill="rgb(255,255,255)" font-weight="bold" textLength="92.4" xml:space="preserve">SendMessage</text>
<text x="133.6" y="182.25" fill="rgb(255,255,255)" textLength="562.8" xml:space="preserve">(to: "auth", message: "Login loops after password reset · T-007 …")</text>
<text x="721.6" y="182.25" fill="rgb(80,80,80)" textLength="8.4" xml:space="preserve">│</text>
<text x="746.8" y="182.25" fill="rgb(255,255,255)" textLength="243.6" xml:space="preserve"> Before/after videos         </text>
<text x="990.4" y="182.25" fill="rgb(80,80,80)" textLength="25.2" xml:space="preserve">off</text>
<text x="24.4" y="201.25" fill="rgb(80,80,80)" textLength="42.0" xml:space="preserve">  ⎿  </text>
<text x="66.4" y="201.25" fill="rgb(153,153,153)" textLength="33.6" xml:space="preserve">Sent</text>
<text x="721.6" y="201.25" fill="rgb(80,80,80)" textLength="8.4" xml:space="preserve">│</text>
<text x="721.6" y="220.25" fill="rgb(80,80,80)" textLength="8.4" xml:space="preserve">│</text>
<text x="738.4" y="220.25" fill="rgb(80,80,80)" font-weight="bold" textLength="50.4" xml:space="preserve">Sprint</text>
<text x="24.4" y="239.25" fill="rgb(255,255,255)" textLength="596.4" xml:space="preserve">⏺ T-007 is with auth: it owns login, its cache is warm and it has room.</text>
<text x="721.6" y="239.25" fill="rgb(80,80,80)" textLength="8.4" xml:space="preserve">│</text>
<text x="746.8" y="239.25" fill="rgb(255,255,255)" textLength="243.6" xml:space="preserve"> Sprint length               </text>
<text x="990.4" y="239.25" fill="rgb(80,80,80)" textLength="50.4" xml:space="preserve">1 week</text>
<text x="721.6" y="258.25" fill="rgb(80,80,80)" textLength="8.4" xml:space="preserve">│</text>
<text x="746.8" y="258.25" fill="rgb(255,255,255)" textLength="243.6" xml:space="preserve"> Sprint starts on            </text>
<text x="990.4" y="258.25" fill="rgb(80,80,80)" textLength="50.4" xml:space="preserve">monday</text>
<rect x="24.4" y="263" width="9" height="19" fill="rgb(55,55,55)"/>
<rect x="32.8" y="263" width="9" height="19" fill="rgb(55,55,55)"/>
<rect x="41.2" y="263" width="9" height="19" fill="rgb(55,55,55)"/>
<rect x="49.6" y="263" width="9" height="19" fill="rgb(55,55,55)"/>
<rect x="58.0" y="263" width="9" height="19" fill="rgb(55,55,55)"/>
<rect x="66.4" y="263" width="9" height="19" fill="rgb(55,55,55)"/>
<rect x="74.8" y="263" width="9" height="19" fill="rgb(55,55,55)"/>
<rect x="83.2" y="263" width="9" height="19" fill="rgb(55,55,55)"/>
<rect x="91.6" y="263" width="9" height="19" fill="rgb(55,55,55)"/>
<rect x="100.0" y="263" width="9" height="19" fill="rgb(55,55,55)"/>
<rect x="108.4" y="263" width="9" height="19" fill="rgb(55,55,55)"/>
<rect x="116.8" y="263" width="9" height="19" fill="rgb(55,55,55)"/>
<rect x="125.2" y="263" width="9" height="19" fill="rgb(55,55,55)"/>
<rect x="133.6" y="263" width="9" height="19" fill="rgb(55,55,55)"/>
<rect x="142.0" y="263" width="9" height="19" fill="rgb(55,55,55)"/>
<rect x="150.4" y="263" width="9" height="19" fill="rgb(55,55,55)"/>
<rect x="158.8" y="263" width="9" height="19" fill="rgb(55,55,55)"/>
<rect x="167.2" y="263" width="9" height="19" fill="rgb(55,55,55)"/>
<rect x="175.6" y="263" width="9" height="19" fill="rgb(55,55,55)"/>
<rect x="184.0" y="263" width="9" height="19" fill="rgb(55,55,55)"/>
<rect x="192.4" y="263" width="9" height="19" fill="rgb(55,55,55)"/>
<rect x="200.8" y="263" width="9" height="19" fill="rgb(55,55,55)"/>
<rect x="209.2" y="263" width="9" height="19" fill="rgb(55,55,55)"/>
<rect x="217.6" y="263" width="9" height="19" fill="rgb(55,55,55)"/>
<rect x="226.0" y="263" width="9" height="19" fill="rgb(55,55,55)"/>
<rect x="234.4" y="263" width="9" height="19" fill="rgb(55,55,55)"/>
<rect x="242.8" y="263" width="9" height="19" fill="rgb(55,55,55)"/>
<rect x="251.2" y="263" width="9" height="19" fill="rgb(55,55,55)"/>
<rect x="259.6" y="263" width="9" height="19" fill="rgb(55,55,55)"/>
<rect x="268.0" y="263" width="9" height="19" fill="rgb(55,55,55)"/>
<rect x="276.4" y="263" width="9" height="19" fill="rgb(55,55,55)"/>
<rect x="284.8" y="263" width="9" height="19" fill="rgb(55,55,55)"/>
<rect x="293.2" y="263" width="9" height="19" fill="rgb(55,55,55)"/>
<rect x="301.6" y="263" width="9" height="19" fill="rgb(55,55,55)"/>
<rect x="310.0" y="263" width="9" height="19" fill="rgb(55,55,55)"/>
<rect x="318.4" y="263" width="9" height="19" fill="rgb(55,55,55)"/>
<rect x="326.8" y="263" width="9" height="19" fill="rgb(55,55,55)"/>
<rect x="335.2" y="263" width="9" height="19" fill="rgb(55,55,55)"/>
<rect x="343.6" y="263" width="9" height="19" fill="rgb(55,55,55)"/>
<rect x="352.0" y="263" width="9" height="19" fill="rgb(55,55,55)"/>
<rect x="360.4" y="263" width="9" height="19" fill="rgb(55,55,55)"/>
<rect x="368.8" y="263" width="9" height="19" fill="rgb(55,55,55)"/>
<rect x="377.2" y="263" width="9" height="19" fill="rgb(55,55,55)"/>
<rect x="385.6" y="263" width="9" height="19" fill="rgb(55,55,55)"/>
<rect x="394.0" y="263" width="9" height="19" fill="rgb(55,55,55)"/>
<rect x="402.4" y="263" width="9" height="19" fill="rgb(55,55,55)"/>
<rect x="410.8" y="263" width="9" height="19" fill="rgb(55,55,55)"/>
<rect x="419.2" y="263" width="9" height="19" fill="rgb(55,55,55)"/>
<rect x="427.6" y="263" width="9" height="19" fill="rgb(55,55,55)"/>
<rect x="436.0" y="263" width="9" height="19" fill="rgb(55,55,55)"/>
<rect x="444.4" y="263" width="9" height="19" fill="rgb(55,55,55)"/>
<rect x="452.8" y="263" width="9" height="19" fill="rgb(55,55,55)"/>
<rect x="461.2" y="263" width="9" height="19" fill="rgb(55,55,55)"/>
<rect x="469.6" y="263" width="9" height="19" fill="rgb(55,55,55)"/>
<rect x="478.0" y="263" width="9" height="19" fill="rgb(55,55,55)"/>
<rect x="486.4" y="263" width="9" height="19" fill="rgb(55,55,55)"/>
<rect x="494.8" y="263" width="9" height="19" fill="rgb(55,55,55)"/>
<rect x="503.2" y="263" width="9" height="19" fill="rgb(55,55,55)"/>
<rect x="511.6" y="263" width="9" height="19" fill="rgb(55,55,55)"/>
<rect x="520.0" y="263" width="9" height="19" fill="rgb(55,55,55)"/>
<rect x="528.4" y="263" width="9" height="19" fill="rgb(55,55,55)"/>
<rect x="536.8" y="263" width="9" height="19" fill="rgb(55,55,55)"/>
<rect x="545.2" y="263" width="9" height="19" fill="rgb(55,55,55)"/>
<rect x="553.6" y="263" width="9" height="19" fill="rgb(55,55,55)"/>
<rect x="562.0" y="263" width="9" height="19" fill="rgb(55,55,55)"/>
<rect x="570.4" y="263" width="9" height="19" fill="rgb(55,55,55)"/>
<rect x="578.8" y="263" width="9" height="19" fill="rgb(55,55,55)"/>
<rect x="587.2" y="263" width="9" height="19" fill="rgb(55,55,55)"/>
<rect x="595.6" y="263" width="9" height="19" fill="rgb(55,55,55)"/>
<rect x="604.0" y="263" width="9" height="19" fill="rgb(55,55,55)"/>
<rect x="612.4" y="263" width="9" height="19" fill="rgb(55,55,55)"/>
<rect x="620.8" y="263" width="9" height="19" fill="rgb(55,55,55)"/>
<rect x="629.2" y="263" width="9" height="19" fill="rgb(55,55,55)"/>
<rect x="637.6" y="263" width="9" height="19" fill="rgb(55,55,55)"/>
<rect x="646.0" y="263" width="9" height="19" fill="rgb(55,55,55)"/>
<rect x="654.4" y="263" width="9" height="19" fill="rgb(55,55,55)"/>
<rect x="662.8" y="263" width="9" height="19" fill="rgb(55,55,55)"/>
<rect x="671.2" y="263" width="9" height="19" fill="rgb(55,55,55)"/>
<rect x="679.6" y="263" width="9" height="19" fill="rgb(55,55,55)"/>
<rect x="688.0" y="263" width="9" height="19" fill="rgb(55,55,55)"/>
<rect x="696.4" y="263" width="9" height="19" fill="rgb(55,55,55)"/>
<rect x="704.8" y="263" width="9" height="19" fill="rgb(55,55,55)"/>
<text x="24.4" y="277.25" fill="rgb(80,80,80)" textLength="16.8" xml:space="preserve">&gt; </text>
<text x="41.2" y="277.25" fill="rgb(255,255,255)" textLength="168.0" xml:space="preserve">/better-tasks config</text>
<text x="721.6" y="277.25" fill="rgb(80,80,80)" textLength="8.4" xml:space="preserve">│</text>
<text x="772.0" y="277.25" fill="rgb(80,80,80)" textLength="369.6" xml:space="preserve">Sprint 41 · Week 41 · Mon Oct 5 – Sun Oct 11</text>
<text x="24.4" y="296.25" fill="rgb(80,80,80)" textLength="42.0" xml:space="preserve">  ⎿  </text>
<text x="66.4" y="296.25" fill="rgb(153,153,153)" textLength="168.0" xml:space="preserve">Sprint board opened.</text>
<text x="721.6" y="296.25" fill="rgb(80,80,80)" textLength="8.4" xml:space="preserve">│</text>
<text x="746.8" y="296.25" fill="rgb(255,255,255)" textLength="243.6" xml:space="preserve"> Sprint goals &amp; reviews      </text>
<text x="990.4" y="296.25" fill="rgb(80,80,80)" textLength="33.6" xml:space="preserve">open</text>
<text x="721.6" y="315.25" fill="rgb(80,80,80)" textLength="8.4" xml:space="preserve">│</text>
<text x="721.6" y="334.25" fill="rgb(80,80,80)" textLength="8.4" xml:space="preserve">│</text>
<text x="738.4" y="334.25" fill="rgb(80,80,80)" font-weight="bold" textLength="100.8" xml:space="preserve">This project</text>
<text x="721.6" y="353.25" fill="rgb(80,80,80)" textLength="8.4" xml:space="preserve">│</text>
<text x="746.8" y="353.25" fill="rgb(255,255,255)" textLength="243.6" xml:space="preserve"> config.json                 </text>
<text x="990.4" y="353.25" fill="rgb(80,80,80)" textLength="109.2" xml:space="preserve">none · create</text>
<text x="721.6" y="372.25" fill="rgb(80,80,80)" textLength="8.4" xml:space="preserve">│</text>
<text x="746.8" y="372.25" fill="rgb(255,255,255)" textLength="243.6" xml:space="preserve"> coordinator.md              </text>
<text x="990.4" y="372.25" fill="rgb(80,80,80)" textLength="134.4" xml:space="preserve">default · create</text>
<text x="721.6" y="391.25" fill="rgb(80,80,80)" textLength="8.4" xml:space="preserve">│</text>
<text x="746.8" y="391.25" fill="rgb(255,255,255)" textLength="243.6" xml:space="preserve"> teammate.md                 </text>
<text x="990.4" y="391.25" fill="rgb(80,80,80)" textLength="134.4" xml:space="preserve">default · create</text>
<text x="721.6" y="410.25" fill="rgb(80,80,80)" textLength="8.4" xml:space="preserve">│</text>
<text x="746.8" y="410.25" fill="rgb(255,255,255)" textLength="243.6" xml:space="preserve"> task-template.md            </text>
<text x="990.4" y="410.25" fill="rgb(80,80,80)" textLength="134.4" xml:space="preserve">default · create</text>
<text x="721.6" y="429.25" fill="rgb(80,80,80)" textLength="8.4" xml:space="preserve">│</text>
<text x="746.8" y="429.25" fill="rgb(255,255,255)" textLength="243.6" xml:space="preserve"> All Claude Code settings    </text>
<text x="990.4" y="429.25" fill="rgb(80,80,80)" textLength="58.8" xml:space="preserve">/config</text>
<text x="24.4" y="448.25" fill="rgb(136,136,136)" textLength="688.8" xml:space="preserve">╭────────────────────────────────────────────────────────────────────────────────╮</text>
<text x="721.6" y="448.25" fill="rgb(80,80,80)" textLength="8.4" xml:space="preserve">│</text>
<rect x="58.0" y="453" width="9" height="19" fill="rgb(255,255,255)"/>
<text x="24.4" y="467.25" fill="rgb(136,136,136)" textLength="8.4" xml:space="preserve">│</text>
<text x="41.2" y="467.25" fill="rgb(255,255,255)" textLength="8.4" xml:space="preserve">&gt;</text>
<text x="704.8" y="467.25" fill="rgb(136,136,136)" textLength="8.4" xml:space="preserve">│</text>
<text x="721.6" y="467.25" fill="rgb(80,80,80)" textLength="8.4" xml:space="preserve">│</text>
<text x="738.4" y="467.25" fill="rgb(80,80,80)" textLength="520.8" xml:space="preserve">1-hour prompt cache: Teammates and the manager keep their prom</text>
<text x="24.4" y="486.25" fill="rgb(136,136,136)" textLength="688.8" xml:space="preserve">╰────────────────────────────────────────────────────────────────────────────────╯</text>
<text x="721.6" y="486.25" fill="rgb(80,80,80)" textLength="8.4" xml:space="preserve">│</text>
<text x="738.4" y="486.25" fill="rgb(215,119,87)" textLength="16.8" xml:space="preserve">↑↓</text>
<text x="755.2" y="486.25" fill="rgb(255,255,255)" opacity="0.55" textLength="67.2" xml:space="preserve">: choose</text>
<text x="839.2" y="486.25" fill="rgb(215,119,87)" textLength="8.4" xml:space="preserve">⏎</text>
<text x="847.6" y="486.25" fill="rgb(255,255,255)" opacity="0.55" textLength="67.2" xml:space="preserve">: change</text>
<text x="931.6" y="486.25" fill="rgb(215,119,87)" textLength="8.4" xml:space="preserve">b</text>
<text x="940.0" y="486.25" fill="rgb(255,255,255)" opacity="0.55" textLength="58.8" xml:space="preserve">: board</text>
<text x="24.4" y="505.25" fill="rgb(177,185,249)" textLength="344.4" xml:space="preserve">  ⏵⏵ accept edits on (shift+tab to cycle)</text>
<text x="545.2" y="505.25" fill="rgb(153,153,153)" textLength="168.0" xml:space="preserve">Sprint 41 · 1/4 done</text>
<text x="721.6" y="505.25" fill="rgb(80,80,80)" textLength="8.4" xml:space="preserve">│</text>
</svg>
