<svg class="rich-terminal" viewBox="0 0 1848 384.0" xmlns="http://www.w3.org/2000/svg">
    <!-- Generated with Rich https://www.textualize.io -->
    <style>

    @font-face {
        font-family: "Fira Code";
        src: local("FiraCode-Regular"),
                url("https://cdnjs.cloudflare.com/ajax/libs/firacode/6.2.0/woff2/FiraCode-Regular.woff2") format("woff2"),
                url("https://cdnjs.cloudflare.com/ajax/libs/firacode/6.2.0/woff/FiraCode-Regular.woff") format("woff");
        font-style: normal;
        font-weight: 400;
    }
    @font-face {
        font-family: "Fira Code";
        src: local("FiraCode-Bold"),
                url("https://cdnjs.cloudflare.com/ajax/libs/firacode/6.2.0/woff2/FiraCode-Bold.woff2") format("woff2"),
                url("https://cdnjs.cloudflare.com/ajax/libs/firacode/6.2.0/woff/FiraCode-Bold.woff") format("woff");
        font-style: bold;
        font-weight: 700;
    }

    .terminal-4054636009-matrix {
        font-family: Fira Code, monospace;
        font-size: 20px;
        line-height: 24.4px;
        font-variant-east-asian: full-width;
    }

    .terminal-4054636009-title {
        font-size: 18px;
        font-weight: bold;
        font-family: arial;
    }

    .terminal-4054636009-r1 { fill: #c5c8c6 }
.terminal-4054636009-r2 { fill: #e0e0e0 }
.terminal-4054636009-r3 { fill: #1e1e1e }
.terminal-4054636009-r4 { fill: #9aa0a6 }
.terminal-4054636009-r5 { fill: #fd971f }
.terminal-4054636009-r6 { fill: #5fd7ff;font-weight: bold }
.terminal-4054636009-r7 { fill: #585858 }
.terminal-4054636009-r8 { fill: #bcbcbc }
.terminal-4054636009-r9 { fill: #000000 }
.terminal-4054636009-r10 { fill: #8a8a8a }
    </style>

    <defs>
    <clipPath id="terminal-4054636009-clip-terminal">
      <rect x="0" y="0" width="1829.0" height="365.0" />
    </clipPath>
    <clipPath id="terminal-4054636009-line-0">
    <rect x="0" y="1.5" width="1830" height="24.65"/>
            </clipPath>
<clipPath id="terminal-4054636009-line-1">
    <rect x="0" y="25.9" width="1830" height="24.65"/>
            </clipPath>
<clipPath id="terminal-4054636009-line-2">
    <rect x="0" y="50.3" width="1830" height="24.65"/>
            </clipPath>
<clipPath id="terminal-4054636009-line-3">
    <rect x="0" y="74.7" width="1830" height="24.65"/>
            </clipPath>
<clipPath id="terminal-4054636009-line-4">
    <rect x="0" y="99.1" width="1830" height="24.65"/>
            </clipPath>
<clipPath id="terminal-4054636009-line-5">
    <rect x="0" y="123.5" width="1830" height="24.65"/>
            </clipPath>
<clipPath id="terminal-4054636009-line-6">
    <rect x="0" y="147.9" width="1830" height="24.65"/>
            </clipPath>
<clipPath id="terminal-4054636009-line-7">
    <rect x="0" y="172.3" width="1830" height="24.65"/>
            </clipPath>
<clipPath id="terminal-4054636009-line-8">
    <rect x="0" y="196.7" width="1830" height="24.65"/>
            </clipPath>
<clipPath id="terminal-4054636009-line-9">
    <rect x="0" y="221.1" width="1830" height="24.65"/>
            </clipPath>
<clipPath id="terminal-4054636009-line-10">
    <rect x="0" y="245.5" width="1830" height="24.65"/>
            </clipPath>
<clipPath id="terminal-4054636009-line-11">
    <rect x="0" y="269.9" width="1830" height="24.65"/>
            </clipPath>
<clipPath id="terminal-4054636009-line-12">
    <rect x="0" y="294.3" width="1830" height="24.65"/>
            </clipPath>
<clipPath id="terminal-4054636009-line-13">
    <rect x="0" y="318.7" width="1830" height="24.65"/>
            </clipPath>
    </defs>

    <rect fill="#292929" stroke="rgba(255,255,255,0.35)" stroke-width="1" x="1" y="1" width="1846" height="382.0" rx="8"/>
        
    <g transform="translate(9, 9)" clip-path="url(#terminal-4054636009-clip-terminal)">
    <rect fill="#1e1e1e" x="0" y="1.5" width="12.2" height="24.65" shape-rendering="crispEdges"/><rect fill="#1e1e1e" x="12.2" y="1.5" width="256.2" height="24.65" shape-rendering="crispEdges"/><rect fill="#1e1e1e" x="268.4" y="1.5" width="1525" height="24.65" shape-rendering="crispEdges"/><rect fill="#1e1e1e" x="1793.4" y="1.5" width="12.2" height="24.65" shape-rendering="crispEdges"/><rect fill="#003054" x="1805.6" y="1.5" width="24.4" height="24.65" shape-rendering="crispEdges"/><rect fill="#1e1e1e" x="0" y="25.9" width="12.2" height="24.65" shape-rendering="crispEdges"/><rect fill="#1e1e1e" x="12.2" y="25.9" width="305" height="24.65" shape-rendering="crispEdges"/><rect fill="#1e1e1e" x="317.2" y="25.9" width="1476.2" height="24.65" shape-rendering="crispEdges"/><rect fill="#1e1e1e" x="1793.4" y="25.9" width="12.2" height="24.65" shape-rendering="crispEdges"/><rect fill="#003054" x="1805.6" y="25.9" width="24.4" height="24.65" shape-rendering="crispEdges"/><rect fill="#1e1e1e" x="0" y="50.3" width="12.2" height="24.65" shape-rendering="crispEdges"/><rect fill="#1e1e1e" x="12.2" y="50.3" width="402.6" height="24.65" shape-rendering="crispEdges"/><rect fill="#1e1e1e" x="414.8" y="50.3" width="1378.6" height="24.65" shape-rendering="crispEdges"/><rect fill="#1e1e1e" x="1793.4" y="50.3" width="12.2" height="24.65" shape-rendering="crispEdges"/><rect fill="#003054" x="1805.6" y="50.3" width="24.4" height="24.65" shape-rendering="crispEdges"/><rect fill="#1e1e1e" x="0" y="74.7" width="12.2" height="24.65" shape-rendering="crispEdges"/><rect fill="#1e1e1e" x="12.2" y="74.7" width="146.4" height="24.65" shape-rendering="crispEdges"/><rect fill="#1e1e1e" x="158.6" y="74.7" width="1634.8" height="24.65" shape-rendering="crispEdges"/><rect fill="#1e1e1e" x="1793.4" y="74.7" width="12.2" height="24.65" shape-rendering="crispEdges"/><rect fill="#003054" x="1805.6" y="74.7" width="24.4" height="24.65" shape-rendering="crispEdges"/><rect fill="#1e1e1e" x="0" y="99.1" width="12.2" height="24.65" shape-rendering="crispEdges"/><rect fill="#1e1e1e" x="12.2" y="99.1" width="341.6" height="24.65" shape-rendering="crispEdges"/><rect fill="#1e1e1e" x="353.8" y="99.1" width="1439.6" height="24.65" shape-rendering="crispEdges"/><rect fill="#1e1e1e" x="1793.4" y="99.1" width="12.2" height="24.65" shape-rendering="crispEdges"/><rect fill="#003054" x="1805.6" y="99.1" width="24.4" height="24.65" shape-rendering="crispEdges"/><rect fill="#1e1e1e" x="0" y="123.5" width="12.2" height="24.65" shape-rendering="crispEdges"/><rect fill="#1e1e1e" x="12.2" y="123.5" width="256.2" height="24.65" shape-rendering="crispEdges"/><rect fill="#1e1e1e" x="268.4" y="123.5" width="1525" height="24.65" shape-rendering="crispEdges"/><rect fill="#1e1e1e" x="1793.4" y="123.5" width="12.2" height="24.65" shape-rendering="crispEdges"/><rect fill="#003054" x="1805.6" y="123.5" width="24.4" height="24.65" shape-rendering="crispEdges"/><rect fill="#1e1e1e" x="0" y="147.9" width="12.2" height="24.65" shape-rendering="crispEdges"/><rect fill="#1e1e1e" x="12.2" y="147.9" width="0" height="24.65" shape-rendering="crispEdges"/><rect fill="#1e1e1e" x="12.2" y="147.9" width="1781.2" height="24.65" shape-rendering="crispEdges"/><rect fill="#1e1e1e" x="1793.4" y="147.9" width="12.2" height="24.65" shape-rendering="crispEdges"/><rect fill="#003054" x="1805.6" y="147.9" width="24.4" height="24.65" shape-rendering="crispEdges"/><rect fill="#1e1e1e" x="0" y="172.3" width="12.2" height="24.65" shape-rendering="crispEdges"/><rect fill="#1e1e1e" x="12.2" y="172.3" width="1171.2" height="24.65" shape-rendering="crispEdges"/><rect fill="#1e1e1e" x="1183.4" y="172.3" width="610" height="24.65" shape-rendering="crispEdges"/><rect fill="#1e1e1e" x="1793.4" y="172.3" width="12.2" height="24.65" shape-rendering="crispEdges"/><rect fill="#003054" x="1805.6" y="172.3" width="24.4" height="24.65" shape-rendering="crispEdges"/><rect fill="#1e1e1e" x="0" y="196.7" width="12.2" height="24.65" shape-rendering="crispEdges"/><rect fill="#1e1e1e" x="12.2" y="196.7" width="1171.2" height="24.65" shape-rendering="crispEdges"/><rect fill="#1e1e1e" x="1183.4" y="196.7" width="610" height="24.65" shape-rendering="crispEdges"/><rect fill="#1e1e1e" x="1793.4" y="196.7" width="12.2" height="24.65" shape-rendering="crispEdges"/><rect fill="#003054" x="1805.6" y="196.7" width="24.4" height="24.65" shape-rendering="crispEdges"/><rect fill="#1e1e1e" x="0" y="221.1" width="12.2" height="24.65" shape-rendering="crispEdges"/><rect fill="#1e1e1e" x="12.2" y="221.1" width="1171.2" height="24.65" shape-rendering="crispEdges"/><rect fill="#1e1e1e" x="1183.4" y="221.1" width="610" height="24.65" shape-rendering="crispEdges"/><rect fill="#1e1e1e" x="1793.4" y="221.1" width="12.2" height="24.65" shape-rendering="crispEdges"/><rect fill="#003054" x="1805.6" y="221.1" width="24.4" height="24.65" shape-rendering="crispEdges"/><rect fill="#1e1e1e" x="0" y="245.5" width="12.2" height="24.65" shape-rendering="crispEdges"/><rect fill="#1e1e1e" x="12.2" y="245.5" width="1171.2" height="24.65" shape-rendering="crispEdges"/><rect fill="#1e1e1e" x="1183.4" y="245.5" width="610" height="24.65" shape-rendering="crispEdges"/><rect fill="#1e1e1e" x="1793.4" y="245.5" width="12.2" height="24.65" shape-rendering="crispEdges"/><rect fill="#003054" x="1805.6" y="245.5" width="24.4" height="24.65" shape-rendering="crispEdges"/><rect fill="#1e1e1e" x="0" y="269.9" width="12.2" height="24.65" shape-rendering="crispEdges"/><rect fill="#1e1e1e" x="12.2" y="269.9" width="1134.6" height="24.65" shape-rendering="crispEdges"/><rect fill="#1e1e1e" x="1146.8" y="269.9" width="646.6" height="24.65" shape-rendering="crispEdges"/><rect fill="#1e1e1e" x="1793.4" y="269.9" width="12.2" height="24.65" shape-rendering="crispEdges"/><rect fill="#003054" x="1805.6" y="269.9" width="24.4" height="24.65" shape-rendering="crispEdges"/><rect fill="#1e1e1e" x="0" y="294.3" width="12.2" height="24.65" shape-rendering="crispEdges"/><rect fill="#1e1e1e" x="12.2" y="294.3" width="24.4" height="24.65" shape-rendering="crispEdges"/><rect fill="#1e1e1e" x="36.6" y="294.3" width="1756.8" height="24.65" shape-rendering="crispEdges"/><rect fill="#1e1e1e" x="1793.4" y="294.3" width="12.2" height="24.65" shape-rendering="crispEdges"/><rect fill="#003054" x="1805.6" y="294.3" width="24.4" height="24.65" shape-rendering="crispEdges"/><rect fill="#1e1e1e" x="0" y="318.7" width="12.2" height="24.65" shape-rendering="crispEdges"/><rect fill="#1e1e1e" x="12.2" y="318.7" width="683.2" height="24.65" shape-rendering="crispEdges"/><rect fill="#1e1e1e" x="695.4" y="318.7" width="1098" height="24.65" shape-rendering="crispEdges"/><rect fill="#1e1e1e" x="1793.4" y="318.7" width="12.2" height="24.65" shape-rendering="crispEdges"/><rect fill="#003054" x="1805.6" y="318.7" width="24.4" height="24.65" shape-rendering="crispEdges"/><rect fill="#303030" x="0" y="343.1" width="12.2" height="24.65" shape-rendering="crispEdges"/><rect fill="#303030" x="12.2" y="343.1" width="122" height="24.65" shape-rendering="crispEdges"/><rect fill="#303030" x="134.2" y="343.1" width="12.2" height="24.65" shape-rendering="crispEdges"/><rect fill="#303030" x="146.4" y="343.1" width="244" height="24.65" shape-rendering="crispEdges"/><rect fill="#5fd7ff" x="390.4" y="343.1" width="146.4" height="24.65" shape-rendering="crispEdges"/><rect fill="#303030" x="536.8" y="343.1" width="97.6" height="24.65" shape-rendering="crispEdges"/><rect fill="#303030" x="634.4" y="343.1" width="915" height="24.65" shape-rendering="crispEdges"/><rect fill="#303030" x="1549.4" y="343.1" width="12.2" height="24.65" shape-rendering="crispEdges"/><rect fill="#303030" x="1561.6" y="343.1" width="12.2" height="24.65" shape-rendering="crispEdges"/><rect fill="#303030" x="1573.8" y="343.1" width="219.6" height="24.65" shape-rendering="crispEdges"/><rect fill="#303030" x="1793.4" y="343.1" width="12.2" height="24.65" shape-rendering="crispEdges"/><rect fill="#003054" x="1805.6" y="343.1" width="24.4" height="24.65" shape-rendering="crispEdges"/>
    <g class="terminal-4054636009-matrix">
    <text class="terminal-4054636009-r2" x="12.2" y="20" textLength="256.2" clip-path="url(#terminal-4054636009-line-0)">⏺&#160;Update(importer.py)</text><text class="terminal-4054636009-r1" x="1830" y="20" textLength="12.2" clip-path="url(#terminal-4054636009-line-0)">
</text><text class="terminal-4054636009-r4" x="12.2" y="44.4" textLength="305" clip-path="url(#terminal-4054636009-line-1)">&#160;&#160;⎿&#160;1&#160;addition,&#160;1&#160;removal</text><text class="terminal-4054636009-r1" x="1830" y="44.4" textLength="12.2" clip-path="url(#terminal-4054636009-line-1)">
</text><text class="terminal-4054636009-r2" x="12.2" y="68.8" textLength="402.6" clip-path="url(#terminal-4054636009-line-2)">⏺&#160;Write(tests/test_import_bom.py)</text><text class="terminal-4054636009-r1" x="1830" y="68.8" textLength="12.2" clip-path="url(#terminal-4054636009-line-2)">
</text><text class="terminal-4054636009-r4" x="12.2" y="93.2" textLength="146.4" clip-path="url(#terminal-4054636009-line-3)">&#160;&#160;⎿&#160;38&#160;lines</text><text class="terminal-4054636009-r1" x="1830" y="93.2" textLength="12.2" clip-path="url(#terminal-4054636009-line-3)">
</text><text class="terminal-4054636009-r2" x="12.2" y="117.6" textLength="341.6" clip-path="url(#terminal-4054636009-line-4)">⏺&#160;Bash(python3&#160;-m&#160;pytest&#160;-q)</text><text class="terminal-4054636009-r1" x="1830" y="117.6" textLength="12.2" clip-path="url(#terminal-4054636009-line-4)">
</text><text class="terminal-4054636009-r4" x="12.2" y="142" textLength="256.2" clip-path="url(#terminal-4054636009-line-5)">&#160;&#160;⎿&#160;2&#160;passed&#160;in&#160;0.41s</text><text class="terminal-4054636009-r1" x="1830" y="142" textLength="12.2" clip-path="url(#terminal-4054636009-line-5)">
</text><text class="terminal-4054636009-r1" x="1830" y="166.4" textLength="12.2" clip-path="url(#terminal-4054636009-line-6)">
</text><text class="terminal-4054636009-r5" x="12.2" y="190.8" textLength="1171.2" clip-path="url(#terminal-4054636009-line-7)">╭─&#160;Two&#160;other&#160;readers&#160;open&#160;the&#160;file&#160;the&#160;same&#160;way&#160;───────────────────────────────────────────────╮</text><text class="terminal-4054636009-r1" x="1830" y="190.8" textLength="12.2" clip-path="url(#terminal-4054636009-line-7)">
</text><text class="terminal-4054636009-r2" x="12.2" y="215.2" textLength="1171.2" clip-path="url(#terminal-4054636009-line-8)">│&#160;&#160;❯&#160;1.&#160;Keep&#160;it&#160;to&#160;the&#160;importer&#160;&#160;&#160;the&#160;weekly&#160;export&#160;and&#160;the&#160;CLI&#160;stay&#160;as&#160;they&#160;are&#160;&#160;&#160;&#160;&#160;&#160;&#160;&#160;&#160;&#160;&#160;&#160;&#160;&#160;&#160;│</text><text class="terminal-4054636009-r1" x="1830" y="215.2" textLength="12.2" clip-path="url(#terminal-4054636009-line-8)">
</text><text class="terminal-4054636009-r2" x="12.2" y="239.6" textLength="1171.2" clip-path="url(#terminal-4054636009-line-9)">│&#160;&#160;&#160;&#160;2.&#160;Switch&#160;all&#160;three&#160;&#160;&#160;&#160;&#160;&#160;&#160;&#160;&#160;&#160;one&#160;change,&#160;three&#160;readers,&#160;one&#160;test&#160;each&#160;&#160;&#160;&#160;&#160;&#160;&#160;&#160;&#160;&#160;&#160;&#160;&#160;&#160;&#160;&#160;&#160;&#160;&#160;&#160;&#160;│</text><text class="terminal-4054636009-r1" x="1830" y="239.6" textLength="12.2" clip-path="url(#terminal-4054636009-line-9)">
</text><text class="terminal-4054636009-r5" x="12.2" y="264" textLength="1171.2" clip-path="url(#terminal-4054636009-line-10)">╰──────────────────────────────────────────────────────────────────────────────────────────────╯</text><text class="terminal-4054636009-r1" x="1830" y="264" textLength="12.2" clip-path="url(#terminal-4054636009-line-10)">
</text><text class="terminal-4054636009-r4" x="12.2" y="288.4" textLength="1134.6" clip-path="url(#terminal-4054636009-line-11)">────────────────────────────────────────────────────────────────────────────&#160;acme-api-T-001&#160;─</text><text class="terminal-4054636009-r1" x="1830" y="288.4" textLength="12.2" clip-path="url(#terminal-4054636009-line-11)">
</text><text class="terminal-4054636009-r2" x="12.2" y="312.8" textLength="24.4" clip-path="url(#terminal-4054636009-line-12)">❯&#160;</text><text class="terminal-4054636009-r1" x="1830" y="312.8" textLength="12.2" clip-path="url(#terminal-4054636009-line-12)">
</text><text class="terminal-4054636009-r4" x="12.2" y="337.2" textLength="683.2" clip-path="url(#terminal-4054636009-line-13)">&#160;&#160;claude&#160;opus&#160;·&#160;sm/T-001&#160;·&#160;answer&#160;here,&#160;or&#160;on&#160;your&#160;phone</text><text class="terminal-4054636009-r1" x="1830" y="337.2" textLength="12.2" clip-path="url(#terminal-4054636009-line-13)">
</text><text class="terminal-4054636009-r6" x="12.2" y="361.6" textLength="122" clip-path="url(#terminal-4054636009-line-14)">&#160;acme-api&#160;</text><text class="terminal-4054636009-r7" x="134.2" y="361.6" textLength="12.2" clip-path="url(#terminal-4054636009-line-14)">│</text><text class="terminal-4054636009-r8" x="146.4" y="361.6" textLength="244" clip-path="url(#terminal-4054636009-line-14)">&#160;manager&#160;&#160;tasks&#160;(5)&#160;</text><text class="terminal-4054636009-r9" x="390.4" y="361.6" textLength="146.4" clip-path="url(#terminal-4054636009-line-14)">&#160;agents&#160;(3)&#160;</text><text class="terminal-4054636009-r8" x="536.8" y="361.6" textLength="97.6" clip-path="url(#terminal-4054636009-line-14)">&#160;config&#160;</text><text class="terminal-4054636009-r10" x="1573.8" y="361.6" textLength="219.6" clip-path="url(#terminal-4054636009-line-14)">ctrl+a&#160;/&#160;←&#160;→&#160;pages</text><text class="terminal-4054636009-r9" x="1805.6" y="361.6" textLength="24.4" clip-path="url(#terminal-4054636009-line-14)">▇▇</text>
    </g>
    </g>
</svg>
